<?xml version="1.0" standalone="no"?>
<!DOCTYPE svg PUBLIC "-//W3C//DTD SVG 20010904//EN"
 "http://www.w3.org/TR/2001/REC-SVG-20010904/DTD/svg10.dtd">
<svg version="1.0" xmlns="http://www.w3.org/2000/svg"
 width="126.000000pt" height="89.000000pt" viewBox="0 0 126.000000 89.000000"
 preserveAspectRatio="xMidYMid meet">

<g transform="translate(0.000000,89.000000) scale(0.100000,-0.100000)"
fill="#f05718" stroke="none">
<path d="M799 744 c-89 -68 -117 -94 -102 -94 7 0 17 8 22 18 6 9 11 13 11 9
0 -4 35 19 78 53 43 33 85 60 94 60 8 0 27 -9 41 -20 25 -20 26 -27 30 -118
l3 -97 2 103 c2 83 -1 104 -13 108 -8 4 -13 10 -10 14 5 9 -28 20 -61 20 -11
0 -54 -25 -95 -56z"/>
<path d="M635 614 c-22 -19 -31 -31 -20 -28 27 10 77 52 68 57 -5 3 -26 -10
-48 -29z"/>
<path d="M266 558 c-25 -35 -22 -173 4 -215 19 -31 23 -33 72 -31 l53 2 -47 3
c-67 6 -78 24 -78 140 0 62 4 94 13 100 6 4 80 10 162 14 l150 5 -157 2 c-152
2 -157 1 -172 -20z"/>
<path d="M602 555 c-2 -11 -4 -66 -5 -122 -2 -84 1 -103 13 -107 8 -3 -2 -4
-22 -3 -20 1 -40 -1 -43 -5 -3 -3 3 -46 15 -94 27 -118 50 -197 55 -192 4 4
-42 202 -59 255 -6 18 -2 21 34 25 22 2 40 0 40 -4 0 -8 205 -170 237 -186 34
-18 70 -14 93 10 18 19 20 33 18 127 l-2 106 -5 -102 c-5 -80 -10 -105 -25
-122 -26 -28 -45 -26 -94 9 -23 17 -47 30 -54 30 -6 0 -9 3 -5 6 3 3 -24 29
-61 56 -128 97 -121 85 -125 217 -1 64 -4 107 -5 96z"/>
<path d="M1017 530 c75 -45 70 -113 -12 -158 -31 -17 2 -14 35 3 75 39 46 175
-37 175 -13 0 -9 -6 14 -20z"/>
<path d="M973 455 c0 -44 2 -61 4 -37 2 23 2 59 0 80 -2 20 -4 1 -4 -43z"/>
<path d="M311 448 c0 -38 2 -68 7 -68 4 0 6 21 4 48 -5 82 -9 89 -11 20z"/>
<path d="M403 455 c0 -33 2 -45 4 -27 2 18 2 45 0 60 -2 15 -4 0 -4 -33z"/>
<path d="M401 310 c-1 -8 13 -75 31 -147 l31 -133 71 2 71 2 -66 3 -65 4 -12
57 c-17 80 -60 230 -61 212z"/>
</g>
</svg>
