<?xml version="1.0" standalone="no"?>
<!DOCTYPE svg PUBLIC "-//W3C//DTD SVG 20010904//EN"
 "http://www.w3.org/TR/2001/REC-SVG-20010904/DTD/svg10.dtd">
<svg version="1.0" xmlns="http://www.w3.org/2000/svg"
 width="126.000000pt" height="89.000000pt" viewBox="0 0 126.000000 89.000000"
 preserveAspectRatio="xMidYMid meet">

<g transform="translate(0.000000,89.000000) scale(0.100000,-0.100000)"
fill="#f05718" stroke="none">
<path d="M355 834 c-27 -8 -61 -18 -75 -22 -38 -11 -70 -67 -70 -122 0 -30 -6
-52 -15 -60 -9 -7 -14 -29 -14 -58 1 -38 6 -52 29 -73 22 -21 30 -23 34 -13 4
9 -4 18 -18 24 -20 7 -25 17 -27 59 -3 37 0 52 12 59 10 7 16 28 18 62 2 55
20 94 49 105 31 13 167 45 190 45 31 0 77 -25 96 -52 11 -15 16 -45 16 -90 0
-38 3 -68 8 -68 4 0 6 33 5 72 -3 78 -19 112 -64 135 -32 17 -113 15 -174 -3z"/>
<path d="M660 841 c0 -7 5 -9 10 -6 6 4 26 1 45 -5 47 -15 65 -53 65 -134 0
-63 1 -65 28 -68 26 -3 27 -6 30 -60 2 -43 0 -58 -10 -58 -8 0 -18 -22 -26
-52 -7 -29 -27 -70 -47 -96 -19 -25 -35 -48 -35 -52 0 -3 13 -27 29 -52 28
-44 30 -45 92 -50 82 -7 88 -9 117 -33 33 -28 45 -52 53 -110 l8 -50 -3 60
c-2 74 -24 108 -83 131 -23 9 -66 17 -96 18 -52 1 -53 2 -76 44 -21 43 -22 45
-4 69 44 62 53 80 59 120 4 27 11 43 20 43 11 0 14 17 14 70 0 72 -3 76 -46
71 -6 -1 -9 11 -6 29 7 49 -8 119 -31 145 -24 27 -107 47 -107 26z"/>
<path d="M915 836 c28 -8 53 -15 56 -16 16 -1 39 -77 39 -130 0 -47 3 -60 15
-60 12 0 15 -14 15 -65 0 -45 -4 -64 -12 -62 -7 1 -15 -16 -19 -44 -8 -53 -30
-100 -60 -127 l-20 -19 32 -52 c31 -50 33 -51 81 -51 54 0 101 -17 137 -49 17
-15 26 -36 31 -78 l7 -58 2 50 c2 96 -49 142 -162 147 -36 2 -65 5 -64 8 1 3
-9 22 -21 43 l-24 37 25 30 c14 16 33 53 42 82 9 29 20 61 26 70 5 10 9 47 9
83 0 49 -3 65 -14 65 -10 0 -15 19 -18 75 -4 94 -26 122 -103 130 l-50 5 50
-14z"/>
<path d="M612 573 c-1 -50 -6 -72 -14 -70 -6 1 -15 -16 -19 -40 -10 -53 -23
-80 -63 -121 -24 -25 -26 -32 -11 -26 28 10 46 25 40 34 -3 4 1 10 8 13 7 3
19 24 26 48 7 24 19 58 27 75 10 20 14 52 11 95 l-3 64 -2 -72z"/>
<path d="M240 435 c19 -50 40 -84 64 -102 l24 -20 -22 -39 c-21 -37 -25 -40
-95 -51 -40 -7 -87 -20 -103 -30 -39 -23 -68 -77 -68 -125 0 -52 15 -48 17 3
3 77 60 128 152 136 53 5 64 3 77 -13 15 -19 15 -19 6 0 -7 15 -5 25 10 40 11
12 22 33 25 49 6 31 9 32 29 12 23 -22 143 -17 129 6 -3 4 -16 3 -30 -3 -59
-27 -165 41 -196 126 -7 20 -17 36 -21 36 -4 0 -3 -11 2 -25z"/>
<path d="M517 293 c10 -27 43 -79 43 -68 0 5 5 4 12 -3 7 -7 32 -12 55 -12 55
0 118 -32 137 -69 9 -16 17 -47 18 -70 2 -22 7 -41 12 -41 15 0 -5 103 -26
133 -26 37 -70 55 -137 58 -49 2 -54 5 -83 46 -34 47 -41 53 -31 26z"/>
<path d="M310 205 c0 -11 83 -56 97 -53 8 2 -10 15 -41 30 -31 15 -56 26 -56
23z"/>
<path d="M493 187 c-24 -11 -43 -25 -43 -29 0 -5 23 3 50 17 28 14 50 28 50
30 0 9 -14 4 -57 -18z"/>
<path d="M525 147 c-10 -19 -16 -39 -14 -46 3 -7 14 8 27 33 25 53 14 63 -13
13z"/>
<path d="M310 145 c5 -14 17 -39 26 -56 l16 -31 44 43 c27 27 44 37 44 28 0
-22 56 -73 64 -60 7 10 0 15 -16 12 -5 0 -8 5 -8 11 0 7 -11 23 -24 36 l-24
23 -26 -26 c-14 -14 -26 -22 -27 -18 0 4 -4 -1 -8 -12 -7 -17 -11 -14 -32 28
-24 49 -46 66 -29 22z"/>
</g>
</svg>
