<?xml version="1.0" standalone="no"?>
<!DOCTYPE svg PUBLIC "-//W3C//DTD SVG 20010904//EN"
 "http://www.w3.org/TR/2001/REC-SVG-20010904/DTD/svg10.dtd">
<svg version="1.0" xmlns="http://www.w3.org/2000/svg"
 width="126.000000pt" height="89.000000pt" viewBox="0 0 126.000000 89.000000"
 preserveAspectRatio="xMidYMid meet">

<g transform="translate(0.000000,89.000000) scale(0.100000,-0.100000)"
fill="#f05718" stroke="none">
<path d="M524 839 c-49 -14 -126 -70 -156 -114 -86 -126 -75 -280 29 -395 19
-22 39 -37 44 -34 5 3 9 1 9 -4 0 -5 15 -17 34 -26 158 -75 336 -14 418 144
33 64 33 205 1 268 -35 66 -83 112 -148 143 -49 24 -72 29 -130 28 -38 0 -84
-5 -101 -10z m210 -23 c102 -45 171 -138 182 -243 10 -94 -16 -160 -102 -258
-14 -16 -23 -23 -18 -16 4 9 -4 6 -22 -6 -68 -49 -201 -55 -281 -15 -60 31
-119 91 -144 147 -34 74 -32 174 3 240 15 28 38 62 52 76 14 15 22 30 18 35
-4 4 -1 4 6 0 7 -4 15 -1 18 8 3 9 14 16 23 16 10 0 21 3 25 8 37 37 164 41
240 8z"/>
<path d="M574 636 c-43 -19 -64 -53 -64 -101 0 -49 22 -83 65 -101 89 -37 178
40 154 132 -18 64 -93 98 -155 70z m117 -35 c40 -40 40 -88 0 -130 -23 -24
-37 -31 -68 -31 -35 1 -82 18 -82 30 0 3 -5 18 -11 35 -36 96 87 170 161 96z"/>
<path d="M634 585 c-15 -39 22 -60 47 -27 11 14 11 15 -1 5 -21 -20 -40 -15
-40 8 0 16 5 20 20 16 11 -3 18 -1 14 4 -8 14 -34 11 -40 -6z"/>
<path d="M346 281 c-4 -5 -2 -12 4 -16 5 -3 10 -4 10 -1 0 2 13 -9 30 -25 16
-17 34 -28 40 -24 5 3 10 2 10 -4 0 -6 32 -20 71 -32 118 -36 242 -15 342 57
27 20 52 33 55 30 3 -3 2 -6 -2 -6 -4 0 4 -13 17 -30 27 -32 67 -128 67 -160
0 -20 -9 -20 -370 -20 -346 0 -370 1 -370 18 0 37 22 93 55 141 20 28 31 51
27 51 -29 0 -84 -110 -88 -175 l-3 -50 381 2 c209 1 382 4 385 6 10 11 -29
134 -58 178 -46 72 -54 76 -85 45 -37 -36 -118 -74 -186 -86 -99 -18 -217 15
-294 82 -18 16 -35 24 -38 19z"/>
</g>
</svg>
